<?xml version="1.0" encoding="UTF-8"?>
<svg id="icons" xmlns="http://www.w3.org/2000/svg" viewBox="0 0 36 36">
  <path d="m21.76,34.26c-3.38,0-6.13-2.75-6.13-6.13s2.75-6.13,6.13-6.13,6.13,2.75,6.13,6.13-2.75,6.13-6.13,6.13Z" fill="#f33"/>
  <path d="m36,14.69v-7.26c0-1.83-1.9-3.95-5.15-3.95h-12.9l2.06,3.92h9.27c1.15,0,1.81.71,1.81,1.35v4.68c0,.6-.06,1.42-.17,1.67-.14.3-.41.52-.82.65-.41.11-1.06.19-1.96.24-.34.01-6.95.01-10.19.01l2.16,3.73h8.25c1.57,0,2.63-.28,2.63.75.09.3.14,2.77.14,3.55v10.21h4.88s-.07-12.94-.07-13.4c0-1.32-.89-2.72-2.95-2.72,2.06,0,3.02-1.49,3.02-3.43Z" fill="#09c"/>
  <path d="m14.15,30.26H4.84v-10.51h11.63v-.02s-1.46-2.7-1.46-2.7l-.55-1.03H4.84V7.39h10.17s.6,0,1.55,0h0s-1.55-2.9-1.55-2.9l-.55-1.03H.03v30.77h16.59c-1.25-.97-2.15-2.37-2.47-3.98Z" fill="#09c"/>
  <ellipse cx="23.76" cy="24.8" rx="1.7" ry="2.47" transform="translate(-9.28 34.2) rotate(-62.11)" fill="#fcc"/>
</svg>